# xmcd
#
# Track frame offsets: 
#        182
#        10862
#        26002
#        39510
#        53420
#        66685
#        80205
#        91770
#        102470
#        115960
#        127102
#        142205
#        153137
#        163802
#        177297
#        191990
#        209267
#        224565
#        240840
#        266057
#        283195
#        295950
#
# Disc length: 4169 seconds
#
# Revision: 5
# Processed by: cddbd v1.5.2PL0 Copyright (c) Steve Scherf et al.
# Submitted via: ExactAudioCopyFreeDBPlugin 1.0
#
DISCID=56104716
DTITLE=Etta James - The Essential Etta James
DYEAR=1993
DGENRE=Blues
TTITLE0=In The Basement, Part One (with Sugar Pie DeSanto)
TTITLE1=Loving You More Every Day
TTITLE2=Do I Make Myself Clear (with Sugar Pie DeSanto)
TTITLE3=I Prefer You
TTITLE4=It Must Be Your Love
TTITLE5=842-3089 (Call My Name)
TTITLE6=I'd Rather Go Blind
TTITLE7=Tell Mama
TTITLE8=Do Right Woman, Do Right Man
TTITLE9=Security
TTITLE10=Almost Persuaded
TTITLE11=You Got It
TTITLE12=Miss Pitiful
TTITLE13=Losers Weepers, Part One
TTITLE14=W.O.M.A.N.
TTITLE15=I Never Meant To Love Him
TTITLE16=You Can Leave Your Hat On
TTITLE17=God's Song (That's Why I Love Mankind)
TTITLE18=All The Way Down
TTITLE19=Lovin' Arms
TTITLE20=Feeling Uneasy
TTITLE21=Let's Burn Down The Cornfield
EXTD=MCA/Chess CHD2-9341
EXTT0=
EXTT1=
EXTT2=
EXTT3=
EXTT4=
EXTT5=
EXTT6=
EXTT7=
EXTT8=
EXTT9=
EXTT10=
EXTT11=
EXTT12=
EXTT13=
EXTT14=
EXTT15=
EXTT16=
EXTT17=
EXTT18=
EXTT19=
EXTT20=
EXTT21=
PLAYORDER=
